<?xml version="1.0" standalone="no"?>
<svg version="1.0" xmlns="http://www.w3.org/2000/svg"
     width="563.000000pt" height="563.000000pt" viewBox="0 0 563.000000 563.000000"
     preserveAspectRatio="xMidYMid meet">
    <g transform="translate(0.000000,563.000000) scale(0.100000,-0.100000)"
       fill="currentColor" stroke="none" opacity="0.8">
        <path d="M1865 4304 c-35 -15 -163 -18 -220 -4 -35 8 -48 6 -95 -17 -63 -31
-127 -37 -140 -14 -7 13 -12 11 -30 -12 -15 -19 -31 -27 -53 -27 -72 -1 -192
-31 -299 -74 -83 -34 -127 -46 -164 -46 -64 0 -109 -15 -155 -50 -19 -16 -77
-42 -128 -59 -97 -33 -160 -65 -224 -114 -32 -25 -41 -28 -67 -19 -27 10 -31
8 -73 -41 -24 -29 -49 -62 -55 -73 -15 -29 -18 -115 -4 -140 15 -28 89 -94
106 -94 20 0 184 67 236 97 25 14 56 36 70 49 33 30 139 85 151 78 5 -3 9 -30
9 -60 0 -30 9 -144 20 -253 17 -163 20 -239 15 -413 -3 -117 -5 -221 -5 -230
6 -101 -16 -585 -30 -652 -8 -38 -8 -66 -2 -84 6 -17 6 -36 -1 -52 -8 -22 -28
-281 -27 -350 1 -14 1 -58 0 -98 -1 -46 7 -100 20 -150 19 -67 21 -92 15 -189
l-7 -111 36 -56 c26 -41 42 -56 59 -56 12 0 41 -9 62 -20 26 -14 65 -22 110
-24 39 -2 93 -7 121 -11 l51 -7 44 52 c24 29 60 71 79 94 20 23 41 52 49 66 7
14 61 58 121 99 211 142 425 342 555 519 33 45 67 82 75 82 8 0 27 22 41 48
15 26 66 96 113 156 48 60 101 132 116 160 16 28 47 70 69 92 22 23 52 66 67
95 14 30 68 124 119 209 232 390 274 536 253 897 -3 65 -9 88 -25 105 -11 13
-24 41 -28 62 -3 22 -21 58 -39 80 -18 23 -47 62 -64 87 -17 26 -49 66 -72 90
-22 24 -40 48 -40 54 0 6 -30 23 -66 39 -51 23 -69 36 -81 62 -16 33 -40 47
-101 59 -19 4 -45 20 -59 36 -17 18 -36 29 -53 29 -15 0 -53 14 -85 31 -40 21
-79 33 -132 39 -48 5 -85 15 -102 27 -23 17 -30 18 -56 7z m-164 -263 c96 19
215 6 359 -39 91 -28 139 -49 176 -76 27 -21 75 -49 105 -61 30 -13 59 -32 64
-43 13 -24 121 -132 133 -132 13 0 81 -221 88 -287 5 -51 2 -68 -13 -95 -12
-19 -20 -54 -21 -83 -1 -28 -20 -105 -42 -172 -22 -67 -40 -129 -40 -137 0
-27 -251 -414 -303 -466 -19 -20 -52 -65 -73 -100 -59 -102 -129 -203 -195
-282 -111 -134 -471 -507 -510 -530 -21 -13 -96 -62 -166 -109 -70 -47 -145
-93 -165 -102 -35 -15 -38 -15 -62 4 -32 25 -47 72 -45 140 1 30 -2 151 -6
269 -6 176 -5 244 10 373 10 87 15 179 12 205 -3 30 2 73 15 121 19 70 20 92
12 266 -9 206 -10 312 -6 390 2 28 -2 91 -8 140 -6 50 -12 158 -13 240 -2 83
-9 193 -16 245 l-13 96 28 43 c27 41 31 42 74 40 31 -2 62 6 100 23 30 14 119
40 198 57 78 18 162 40 185 50 29 13 48 16 60 9 11 -6 40 -5 78 3z"/>
        <path d="M4735 3824 c-11 -2 -47 -9 -80 -15 -121 -23 -213 -51 -366 -114 -85
-35 -174 -68 -197 -74 -23 -7 -58 -28 -79 -47 -21 -20 -58 -44 -83 -53 -25
-10 -76 -36 -114 -59 -38 -23 -89 -49 -115 -58 -25 -10 -59 -30 -76 -45 -16
-15 -82 -61 -146 -103 -64 -41 -134 -91 -155 -112 -22 -20 -57 -49 -79 -64
-22 -15 -51 -40 -65 -55 -13 -14 -47 -39 -75 -55 -54 -31 -134 -109 -184 -179
-43 -62 -65 -139 -56 -206 5 -47 13 -61 59 -109 44 -47 60 -57 111 -70 33 -8
78 -21 100 -29 33 -12 200 -18 200 -7 0 1 56 3 125 4 97 2 150 8 235 29 208
51 270 70 325 98 30 15 109 46 175 68 213 70 309 108 364 145 44 30 62 36 95
34 l41 -3 -2 -45 c-4 -110 -11 -199 -17 -208 -13 -21 -51 -243 -65 -377 -14
-123 -31 -517 -24 -529 3 -4 6 -58 8 -120 2 -97 7 -130 44 -254 23 -80 42
-167 42 -197 2 -61 11 -73 79 -104 57 -26 94 -26 134 -1 47 28 74 84 74 150 0
44 -7 67 -34 116 -66 119 -76 182 -75 502 1 215 5 298 16 340 13 51 25 115 66
337 6 33 22 102 36 154 13 52 22 105 18 118 -8 32 47 230 95 341 17 39 38 63
98 111 42 33 110 89 151 123 70 60 75 66 93 133 25 93 40 203 32 240 -4 17
-15 42 -25 56 -23 32 -128 101 -190 124 l-46 17 -61 -31 c-96 -48 -120 -43
-245 53 -38 29 -109 42 -162 30z m-7 -290 c16 -11 22 -24 22 -52 0 -46 19 -75
72 -108 37 -24 40 -28 35 -61 -3 -19 -15 -54 -27 -77 -11 -23 -20 -57 -20 -74
0 -83 -59 -145 -209 -220 -51 -26 -110 -62 -130 -80 -27 -25 -42 -32 -61 -28
-37 7 -188 -38 -384 -116 -238 -94 -413 -136 -582 -141 -86 -2 -107 1 -161 23
-79 31 -81 47 -13 131 28 34 50 68 50 75 0 17 196 194 214 194 9 0 39 23 67
50 28 28 59 50 68 50 9 0 35 19 58 43 23 23 63 53 90 66 182 89 221 111 264
149 41 36 53 42 92 42 27 0 59 8 79 19 18 11 105 41 193 66 88 26 171 53 185
61 27 15 63 11 98 -12z"/>
    </g>
</svg>